G04 #@! TF.GenerationSoftware,KiCad,Pcbnew,(5.1.5-0-10_14)*
G04 #@! TF.CreationDate,2019-12-30T14:06:52-05:00*
G04 #@! TF.ProjectId,FeatherShim,46656174-6865-4725-9368-696d2e6b6963,rev?*
G04 #@! TF.SameCoordinates,Original*
G04 #@! TF.FileFunction,Legend,Bot*
G04 #@! TF.FilePolarity,Positive*
%FSLAX46Y46*%
G04 Gerber Fmt 4.6, Leading zero omitted, Abs format (unit mm)*
G04 Created by KiCad (PCBNEW (5.1.5-0-10_14)) date 2019-12-30 14:06:52*
%MOMM*%
%LPD*%
G04 APERTURE LIST*
%ADD10C,0.150000*%
%ADD11C,0.127000*%
G04 APERTURE END LIST*
D10*
X179130314Y-105755742D02*
X179130314Y-106155742D01*
X178501742Y-106155742D02*
X179701742Y-106155742D01*
X179701742Y-105584314D01*
X178558885Y-104670028D02*
X178501742Y-104784314D01*
X178501742Y-105012885D01*
X178558885Y-105127171D01*
X178673171Y-105184314D01*
X179130314Y-105184314D01*
X179244600Y-105127171D01*
X179301742Y-105012885D01*
X179301742Y-104784314D01*
X179244600Y-104670028D01*
X179130314Y-104612885D01*
X179016028Y-104612885D01*
X178901742Y-105184314D01*
X178501742Y-103584314D02*
X179130314Y-103584314D01*
X179244600Y-103641457D01*
X179301742Y-103755742D01*
X179301742Y-103984314D01*
X179244600Y-104098600D01*
X178558885Y-103584314D02*
X178501742Y-103698600D01*
X178501742Y-103984314D01*
X178558885Y-104098600D01*
X178673171Y-104155742D01*
X178787457Y-104155742D01*
X178901742Y-104098600D01*
X178958885Y-103984314D01*
X178958885Y-103698600D01*
X179016028Y-103584314D01*
X179301742Y-103184314D02*
X179301742Y-102727171D01*
X179701742Y-103012885D02*
X178673171Y-103012885D01*
X178558885Y-102955742D01*
X178501742Y-102841457D01*
X178501742Y-102727171D01*
X178501742Y-102327171D02*
X179701742Y-102327171D01*
X178501742Y-101812885D02*
X179130314Y-101812885D01*
X179244600Y-101870028D01*
X179301742Y-101984314D01*
X179301742Y-102155742D01*
X179244600Y-102270028D01*
X179187457Y-102327171D01*
X178558885Y-100784314D02*
X178501742Y-100898600D01*
X178501742Y-101127171D01*
X178558885Y-101241457D01*
X178673171Y-101298600D01*
X179130314Y-101298600D01*
X179244600Y-101241457D01*
X179301742Y-101127171D01*
X179301742Y-100898600D01*
X179244600Y-100784314D01*
X179130314Y-100727171D01*
X179016028Y-100727171D01*
X178901742Y-101298600D01*
X178501742Y-100212885D02*
X179301742Y-100212885D01*
X179073171Y-100212885D02*
X179187457Y-100155742D01*
X179244600Y-100098600D01*
X179301742Y-99984314D01*
X179301742Y-99870028D01*
D11*
X144246600Y-111603971D02*
X144282885Y-111676542D01*
X144282885Y-111785400D01*
X144246600Y-111894257D01*
X144174028Y-111966828D01*
X144101457Y-112003114D01*
X143956314Y-112039400D01*
X143847457Y-112039400D01*
X143702314Y-112003114D01*
X143629742Y-111966828D01*
X143557171Y-111894257D01*
X143520885Y-111785400D01*
X143520885Y-111712828D01*
X143557171Y-111603971D01*
X143593457Y-111567685D01*
X143847457Y-111567685D01*
X143847457Y-111712828D01*
X143520885Y-111241114D02*
X144282885Y-111241114D01*
X143520885Y-110805685D01*
X144282885Y-110805685D01*
X143520885Y-110442828D02*
X144282885Y-110442828D01*
X144282885Y-110261400D01*
X144246600Y-110152542D01*
X144174028Y-110079971D01*
X144101457Y-110043685D01*
X143956314Y-110007400D01*
X143847457Y-110007400D01*
X143702314Y-110043685D01*
X143629742Y-110079971D01*
X143557171Y-110152542D01*
X143520885Y-110261400D01*
X143520885Y-110442828D01*
X161337171Y-112003114D02*
X161300885Y-111894257D01*
X161300885Y-111712828D01*
X161337171Y-111640257D01*
X161373457Y-111603971D01*
X161446028Y-111567685D01*
X161518600Y-111567685D01*
X161591171Y-111603971D01*
X161627457Y-111640257D01*
X161663742Y-111712828D01*
X161700028Y-111857971D01*
X161736314Y-111930542D01*
X161772600Y-111966828D01*
X161845171Y-112003114D01*
X161917742Y-112003114D01*
X161990314Y-111966828D01*
X162026600Y-111930542D01*
X162062885Y-111857971D01*
X162062885Y-111676542D01*
X162026600Y-111567685D01*
X161373457Y-110805685D02*
X161337171Y-110841971D01*
X161300885Y-110950828D01*
X161300885Y-111023400D01*
X161337171Y-111132257D01*
X161409742Y-111204828D01*
X161482314Y-111241114D01*
X161627457Y-111277400D01*
X161736314Y-111277400D01*
X161881457Y-111241114D01*
X161954028Y-111204828D01*
X162026600Y-111132257D01*
X162062885Y-111023400D01*
X162062885Y-110950828D01*
X162026600Y-110841971D01*
X161990314Y-110805685D01*
X161300885Y-110479114D02*
X162062885Y-110479114D01*
X161300885Y-110043685D02*
X161736314Y-110370257D01*
X162062885Y-110043685D02*
X161627457Y-110479114D01*
X163840885Y-112220828D02*
X164602885Y-112220828D01*
X164058600Y-111966828D01*
X164602885Y-111712828D01*
X163840885Y-111712828D01*
X164602885Y-111204828D02*
X164602885Y-111059685D01*
X164566600Y-110987114D01*
X164494028Y-110914542D01*
X164348885Y-110878257D01*
X164094885Y-110878257D01*
X163949742Y-110914542D01*
X163877171Y-110987114D01*
X163840885Y-111059685D01*
X163840885Y-111204828D01*
X163877171Y-111277400D01*
X163949742Y-111349971D01*
X164094885Y-111386257D01*
X164348885Y-111386257D01*
X164494028Y-111349971D01*
X164566600Y-111277400D01*
X164602885Y-111204828D01*
X163877171Y-110587971D02*
X163840885Y-110479114D01*
X163840885Y-110297685D01*
X163877171Y-110225114D01*
X163913457Y-110188828D01*
X163986028Y-110152542D01*
X164058600Y-110152542D01*
X164131171Y-110188828D01*
X164167457Y-110225114D01*
X164203742Y-110297685D01*
X164240028Y-110442828D01*
X164276314Y-110515400D01*
X164312600Y-110551685D01*
X164385171Y-110587971D01*
X164457742Y-110587971D01*
X164530314Y-110551685D01*
X164566600Y-110515400D01*
X164602885Y-110442828D01*
X164602885Y-110261400D01*
X164566600Y-110152542D01*
X163840885Y-109825971D02*
X164602885Y-109825971D01*
X146663228Y-96269628D02*
X146626942Y-96160771D01*
X146590657Y-96124485D01*
X146518085Y-96088200D01*
X146409228Y-96088200D01*
X146336657Y-96124485D01*
X146300371Y-96160771D01*
X146264085Y-96233342D01*
X146264085Y-96523628D01*
X147026085Y-96523628D01*
X147026085Y-96269628D01*
X146989800Y-96197057D01*
X146953514Y-96160771D01*
X146880942Y-96124485D01*
X146808371Y-96124485D01*
X146735800Y-96160771D01*
X146699514Y-96197057D01*
X146663228Y-96269628D01*
X146663228Y-96523628D01*
X146481800Y-95797914D02*
X146481800Y-95435057D01*
X146264085Y-95870485D02*
X147026085Y-95616485D01*
X146264085Y-95362485D01*
X147026085Y-95217342D02*
X147026085Y-94781914D01*
X146264085Y-94999628D02*
X147026085Y-94999628D01*
X152106085Y-96668771D02*
X151489228Y-96668771D01*
X151416657Y-96632485D01*
X151380371Y-96596200D01*
X151344085Y-96523628D01*
X151344085Y-96378485D01*
X151380371Y-96305914D01*
X151416657Y-96269628D01*
X151489228Y-96233342D01*
X152106085Y-96233342D01*
X151380371Y-95906771D02*
X151344085Y-95797914D01*
X151344085Y-95616485D01*
X151380371Y-95543914D01*
X151416657Y-95507628D01*
X151489228Y-95471342D01*
X151561800Y-95471342D01*
X151634371Y-95507628D01*
X151670657Y-95543914D01*
X151706942Y-95616485D01*
X151743228Y-95761628D01*
X151779514Y-95834200D01*
X151815800Y-95870485D01*
X151888371Y-95906771D01*
X151960942Y-95906771D01*
X152033514Y-95870485D01*
X152069800Y-95834200D01*
X152106085Y-95761628D01*
X152106085Y-95580200D01*
X152069800Y-95471342D01*
X151743228Y-94890771D02*
X151706942Y-94781914D01*
X151670657Y-94745628D01*
X151598085Y-94709342D01*
X151489228Y-94709342D01*
X151416657Y-94745628D01*
X151380371Y-94781914D01*
X151344085Y-94854485D01*
X151344085Y-95144771D01*
X152106085Y-95144771D01*
X152106085Y-94890771D01*
X152069800Y-94818200D01*
X152033514Y-94781914D01*
X151960942Y-94745628D01*
X151888371Y-94745628D01*
X151815800Y-94781914D01*
X151779514Y-94818200D01*
X151743228Y-94890771D01*
X151743228Y-95144771D01*
X149203228Y-96269628D02*
X149203228Y-96015628D01*
X148804085Y-95906771D02*
X148804085Y-96269628D01*
X149566085Y-96269628D01*
X149566085Y-95906771D01*
X148804085Y-95580200D02*
X149566085Y-95580200D01*
X148804085Y-95144771D01*
X149566085Y-95144771D01*
X171700371Y-96614342D02*
X171664085Y-96505485D01*
X171664085Y-96324057D01*
X171700371Y-96251485D01*
X171736657Y-96215200D01*
X171809228Y-96178914D01*
X171881800Y-96178914D01*
X171954371Y-96215200D01*
X171990657Y-96251485D01*
X172026942Y-96324057D01*
X172063228Y-96469200D01*
X172099514Y-96541771D01*
X172135800Y-96578057D01*
X172208371Y-96614342D01*
X172280942Y-96614342D01*
X172353514Y-96578057D01*
X172389800Y-96541771D01*
X172426085Y-96469200D01*
X172426085Y-96287771D01*
X172389800Y-96178914D01*
X171736657Y-95416914D02*
X171700371Y-95453200D01*
X171664085Y-95562057D01*
X171664085Y-95634628D01*
X171700371Y-95743485D01*
X171772942Y-95816057D01*
X171845514Y-95852342D01*
X171990657Y-95888628D01*
X172099514Y-95888628D01*
X172244657Y-95852342D01*
X172317228Y-95816057D01*
X172389800Y-95743485D01*
X172426085Y-95634628D01*
X172426085Y-95562057D01*
X172389800Y-95453200D01*
X172353514Y-95416914D01*
X171664085Y-94727485D02*
X171664085Y-95090342D01*
X172426085Y-95090342D01*
X174240371Y-96632485D02*
X174204085Y-96523628D01*
X174204085Y-96342200D01*
X174240371Y-96269628D01*
X174276657Y-96233342D01*
X174349228Y-96197057D01*
X174421800Y-96197057D01*
X174494371Y-96233342D01*
X174530657Y-96269628D01*
X174566942Y-96342200D01*
X174603228Y-96487342D01*
X174639514Y-96559914D01*
X174675800Y-96596200D01*
X174748371Y-96632485D01*
X174820942Y-96632485D01*
X174893514Y-96596200D01*
X174929800Y-96559914D01*
X174966085Y-96487342D01*
X174966085Y-96305914D01*
X174929800Y-96197057D01*
X174204085Y-95870485D02*
X174966085Y-95870485D01*
X174966085Y-95689057D01*
X174929800Y-95580200D01*
X174857228Y-95507628D01*
X174784657Y-95471342D01*
X174639514Y-95435057D01*
X174530657Y-95435057D01*
X174385514Y-95471342D01*
X174312942Y-95507628D01*
X174240371Y-95580200D01*
X174204085Y-95689057D01*
X174204085Y-95870485D01*
X174421800Y-95144771D02*
X174421800Y-94781914D01*
X174204085Y-95217342D02*
X174966085Y-94963342D01*
X174204085Y-94709342D01*
X139202885Y-111603971D02*
X139202885Y-111132257D01*
X138912600Y-111386257D01*
X138912600Y-111277400D01*
X138876314Y-111204828D01*
X138840028Y-111168542D01*
X138767457Y-111132257D01*
X138586028Y-111132257D01*
X138513457Y-111168542D01*
X138477171Y-111204828D01*
X138440885Y-111277400D01*
X138440885Y-111495114D01*
X138477171Y-111567685D01*
X138513457Y-111603971D01*
X139202885Y-110914542D02*
X138440885Y-110660542D01*
X139202885Y-110406542D01*
X135900885Y-111310685D02*
X136263742Y-111564685D01*
X135900885Y-111746114D02*
X136662885Y-111746114D01*
X136662885Y-111455828D01*
X136626600Y-111383257D01*
X136590314Y-111346971D01*
X136517742Y-111310685D01*
X136408885Y-111310685D01*
X136336314Y-111346971D01*
X136300028Y-111383257D01*
X136263742Y-111455828D01*
X136263742Y-111746114D01*
X135937171Y-111020400D02*
X135900885Y-110911542D01*
X135900885Y-110730114D01*
X135937171Y-110657542D01*
X135973457Y-110621257D01*
X136046028Y-110584971D01*
X136118600Y-110584971D01*
X136191171Y-110621257D01*
X136227457Y-110657542D01*
X136263742Y-110730114D01*
X136300028Y-110875257D01*
X136336314Y-110947828D01*
X136372600Y-110984114D01*
X136445171Y-111020400D01*
X136517742Y-111020400D01*
X136590314Y-110984114D01*
X136626600Y-110947828D01*
X136662885Y-110875257D01*
X136662885Y-110693828D01*
X136626600Y-110584971D01*
X136662885Y-110367257D02*
X136662885Y-109931828D01*
X135900885Y-110149542D02*
X136662885Y-110149542D01*
X166380885Y-112220828D02*
X167142885Y-112220828D01*
X166598600Y-111966828D01*
X167142885Y-111712828D01*
X166380885Y-111712828D01*
X166380885Y-111349971D02*
X167142885Y-111349971D01*
X166417171Y-111023400D02*
X166380885Y-110914542D01*
X166380885Y-110733114D01*
X166417171Y-110660542D01*
X166453457Y-110624257D01*
X166526028Y-110587971D01*
X166598600Y-110587971D01*
X166671171Y-110624257D01*
X166707457Y-110660542D01*
X166743742Y-110733114D01*
X166780028Y-110878257D01*
X166816314Y-110950828D01*
X166852600Y-110987114D01*
X166925171Y-111023400D01*
X166997742Y-111023400D01*
X167070314Y-110987114D01*
X167106600Y-110950828D01*
X167142885Y-110878257D01*
X167142885Y-110696828D01*
X167106600Y-110587971D01*
X167142885Y-110116257D02*
X167142885Y-109971114D01*
X167106600Y-109898542D01*
X167034028Y-109825971D01*
X166888885Y-109789685D01*
X166634885Y-109789685D01*
X166489742Y-109825971D01*
X166417171Y-109898542D01*
X166380885Y-109971114D01*
X166380885Y-110116257D01*
X166417171Y-110188828D01*
X166489742Y-110261400D01*
X166634885Y-110297685D01*
X166888885Y-110297685D01*
X167034028Y-110261400D01*
X167106600Y-110188828D01*
X167142885Y-110116257D01*
X168920885Y-111150400D02*
X169283742Y-111404400D01*
X168920885Y-111585828D02*
X169682885Y-111585828D01*
X169682885Y-111295542D01*
X169646600Y-111222971D01*
X169610314Y-111186685D01*
X169537742Y-111150400D01*
X169428885Y-111150400D01*
X169356314Y-111186685D01*
X169320028Y-111222971D01*
X169283742Y-111295542D01*
X169283742Y-111585828D01*
X169682885Y-110896400D02*
X168920885Y-110388400D01*
X169682885Y-110388400D02*
X168920885Y-110896400D01*
X172222885Y-111603971D02*
X172222885Y-111168542D01*
X171460885Y-111386257D02*
X172222885Y-111386257D01*
X172222885Y-110987114D02*
X171460885Y-110479114D01*
X172222885Y-110479114D02*
X171460885Y-110987114D01*
M02*
