M48
; DRILL file {KiCad (5.1.5-0-10_14)} date Monday, December 30, 2019 at 02:06:55 PM
; FORMAT={-:-/ absolute / inch / decimal}
; #@! TF.CreationDate,2019-12-30T14:06:55-05:00
; #@! TF.GenerationSoftware,Kicad,Pcbnew,(5.1.5-0-10_14)
; #@! TF.FileFunction,Plated,1,2,PTH
FMAT,2
INCH
T1C0.0394
T2C0.0400
%
G90
G05
T1
X5.7689Y-3.528
X5.8689Y-3.528
X5.9689Y-3.528
X6.0689Y-3.528
X6.1689Y-3.528
X6.2689Y-3.528
X6.3689Y-3.528
X6.4689Y-3.528
X6.5689Y-3.528
X6.6689Y-3.528
X6.7689Y-3.528
X6.8689Y-3.528
X5.3689Y-4.628
X5.4689Y-4.628
X5.5689Y-4.628
X5.6689Y-4.628
X5.7689Y-4.628
X5.8689Y-4.628
X5.9689Y-4.628
X6.0689Y-4.628
X6.1689Y-4.628
X6.2689Y-4.628
X6.3689Y-4.628
X6.4689Y-4.628
X6.5689Y-4.628
X6.6689Y-4.628
X6.7689Y-4.628
X6.8689Y-4.628
T2
X5.369Y-4.468
X5.469Y-4.468
X5.569Y-4.468
X5.669Y-4.468
X5.769Y-3.668
X5.769Y-4.468
X5.869Y-3.668
X5.869Y-4.468
X5.969Y-3.668
X5.969Y-4.468
X6.069Y-3.668
X6.069Y-4.468
X6.169Y-3.668
X6.169Y-4.468
X6.269Y-3.668
X6.269Y-4.468
X6.369Y-3.668
X6.369Y-4.468
X6.469Y-3.668
X6.469Y-4.468
X6.569Y-3.668
X6.569Y-4.468
X6.669Y-3.668
X6.669Y-4.468
X6.769Y-3.668
X6.769Y-4.468
X6.869Y-3.668
X6.869Y-4.468
T0
M30
