G04 #@! TF.GenerationSoftware,KiCad,Pcbnew,(5.1.5-0-10_14)*
G04 #@! TF.CreationDate,2019-12-30T14:06:52-05:00*
G04 #@! TF.ProjectId,FeatherShim,46656174-6865-4725-9368-696d2e6b6963,rev?*
G04 #@! TF.SameCoordinates,Original*
G04 #@! TF.FileFunction,Copper,L1,Top*
G04 #@! TF.FilePolarity,Positive*
%FSLAX46Y46*%
G04 Gerber Fmt 4.6, Leading zero omitted, Abs format (unit mm)*
G04 Created by KiCad (PCBNEW (5.1.5-0-10_14)) date 2019-12-30 14:06:52*
%MOMM*%
%LPD*%
G04 APERTURE LIST*
%ADD10R,1.700000X1.700000*%
%ADD11O,1.700000X1.700000*%
%ADD12C,1.778000*%
%ADD13C,1.524000*%
%ADD14R,1.778000X1.778000*%
%ADD15C,0.250000*%
G04 APERTURE END LIST*
D10*
X136370000Y-117550000D03*
D11*
X138910000Y-117550000D03*
X141450000Y-117550000D03*
X143990000Y-117550000D03*
X146530000Y-117550000D03*
X149070000Y-117550000D03*
X151610000Y-117550000D03*
X154150000Y-117550000D03*
X156690000Y-117550000D03*
X159230000Y-117550000D03*
X161770000Y-117550000D03*
X164310000Y-117550000D03*
X166850000Y-117550000D03*
X169390000Y-117550000D03*
X171930000Y-117550000D03*
X174470000Y-117550000D03*
D10*
X146530000Y-89610000D03*
D11*
X149070000Y-89610000D03*
X151610000Y-89610000D03*
X154150000Y-89610000D03*
X156690000Y-89610000D03*
X159230000Y-89610000D03*
X161770000Y-89610000D03*
X164310000Y-89610000D03*
X166850000Y-89610000D03*
X169390000Y-89610000D03*
X171930000Y-89610000D03*
X174470000Y-89610000D03*
D12*
X149072600Y-93167200D03*
D13*
X154152600Y-93167200D03*
X156692600Y-93167200D03*
X159232600Y-93167200D03*
X161772600Y-93167200D03*
X164312600Y-93167200D03*
X166852600Y-93167200D03*
X169392600Y-93167200D03*
X171932600Y-93167200D03*
D12*
X174472600Y-93167200D03*
X174472600Y-113487200D03*
X171932600Y-113487200D03*
X169392600Y-113487200D03*
X166852600Y-113487200D03*
X159232600Y-113487200D03*
X156692600Y-113487200D03*
X154152600Y-113487200D03*
X151612600Y-113487200D03*
X149072600Y-113487200D03*
X146532600Y-113487200D03*
X141452600Y-113487200D03*
X138912600Y-113487200D03*
X136372600Y-113487200D03*
D14*
X164312600Y-113487200D03*
X161772600Y-113487200D03*
X151612600Y-93167200D03*
X146532600Y-93167200D03*
X143992600Y-113487200D03*
D15*
X149120800Y-93380701D02*
X149081501Y-93420000D01*
X149120800Y-89610000D02*
X149120800Y-93380701D01*
X154200800Y-93380701D02*
X154161501Y-93420000D01*
X154200800Y-89610000D02*
X154200800Y-93380701D01*
X156740800Y-93380701D02*
X156701501Y-93420000D01*
X156740800Y-89610000D02*
X156740800Y-93380701D01*
X159280800Y-93380701D02*
X159241501Y-93420000D01*
X159280800Y-89610000D02*
X159280800Y-93380701D01*
X161820800Y-93380701D02*
X161781501Y-93420000D01*
X161820800Y-89610000D02*
X161820800Y-93380701D01*
X164360800Y-93380701D02*
X164321501Y-93420000D01*
X164360800Y-89610000D02*
X164360800Y-93380701D01*
X166900800Y-93380701D02*
X166861501Y-93420000D01*
X166900800Y-89610000D02*
X166900800Y-93380701D01*
X169440800Y-93380701D02*
X169401501Y-93420000D01*
X169440800Y-89610000D02*
X169440800Y-93380701D01*
X171980800Y-93380701D02*
X171941501Y-93420000D01*
X171980800Y-89610000D02*
X171980800Y-93380701D01*
X174520800Y-93380701D02*
X174481501Y-93420000D01*
X174520800Y-89610000D02*
X174520800Y-93380701D01*
X174481501Y-117523401D02*
X174508100Y-117550000D01*
X174481501Y-113740000D02*
X174481501Y-117523401D01*
X171941501Y-117523401D02*
X171968100Y-117550000D01*
X171941501Y-113740000D02*
X171941501Y-117523401D01*
X169401501Y-117523401D02*
X169428100Y-117550000D01*
X169401501Y-113740000D02*
X169401501Y-117523401D01*
X166861501Y-117523401D02*
X166888100Y-117550000D01*
X166861501Y-113740000D02*
X166861501Y-117523401D01*
X159241501Y-117523401D02*
X159268100Y-117550000D01*
X159241501Y-113740000D02*
X159241501Y-117523401D01*
X156701501Y-117523401D02*
X156728100Y-117550000D01*
X156701501Y-113740000D02*
X156701501Y-117523401D01*
X154161501Y-117523401D02*
X154188100Y-117550000D01*
X154161501Y-113740000D02*
X154161501Y-117523401D01*
X151621501Y-117523401D02*
X151648100Y-117550000D01*
X151621501Y-113740000D02*
X151621501Y-117523401D01*
X149081501Y-117523401D02*
X149108100Y-117550000D01*
X149081501Y-113740000D02*
X149081501Y-117523401D01*
X146541501Y-117523401D02*
X146568100Y-117550000D01*
X146541501Y-113740000D02*
X146541501Y-117523401D01*
X141461501Y-117523401D02*
X141488100Y-117550000D01*
X141461501Y-113740000D02*
X141461501Y-117523401D01*
X138921501Y-117523401D02*
X138948100Y-117550000D01*
X138921501Y-113740000D02*
X138921501Y-117523401D01*
X136381501Y-117523401D02*
X136408100Y-117550000D01*
X136381501Y-113740000D02*
X136381501Y-117523401D01*
X164321501Y-117523401D02*
X164348100Y-117550000D01*
X164321501Y-113740000D02*
X164321501Y-117523401D01*
X161781501Y-117523401D02*
X161808100Y-117550000D01*
X161781501Y-113740000D02*
X161781501Y-117523401D01*
X151660800Y-93380701D02*
X151621501Y-93420000D01*
X151660800Y-89610000D02*
X151660800Y-93380701D01*
X144001501Y-117523401D02*
X144028100Y-117550000D01*
X144001501Y-113740000D02*
X144001501Y-117523401D01*
X146580800Y-93380701D02*
X146541501Y-93420000D01*
X146580800Y-89610000D02*
X146580800Y-93380701D01*
M02*
